<?xml version="1.0" encoding="utf-8"?>
<svg
	version="1.1"
	xmlns="http://www.w3.org/2000/svg"
	xmlns:xlink="http://www.w3.org/1999/xlink"
	xml:space="preserve"
	x="0px" y="0px"
	width="188.9"
	height="37.2"
	viewBox="0 0 188.9 37.2">
<style type="text/css">
	.st0{fill:#2C3C48;}
	.st1{fill:#FFFFFF;}
	.st3{fill:none;stroke:#2C3C48;stroke-width:0.7087;stroke-linecap:round;stroke-miterlimit:10;}
</style>
<g>
	<path class="st0" d="M32,21.1H10.1c-5.3,0-9.8-4.5-9.9-10.3c0-0.1,0-0.2,0-0.3c0-0.1,0-0.2,0-0.3C0.3,4.6,4.8,0,10.1,0H32
		c3.1,0,6,1.5,7.9,4.2c1.4,1.9,2.1,4.3,2,6.9c-0.1,2.2-0.8,4.2-2,5.9C38,19.6,35.1,21.1,32,21.1"/>
	<path class="st0" d="M77.1,21.1H55.2c-5.3,0-9.8-4.5-9.9-10.3c0-0.1,0-0.2,0-0.3c0-0.1,0-0.2,0-0.3c0.1-5.7,4.6-10.3,9.9-10.3h21.9
		c3.1,0,6,1.5,7.9,4.2c1.4,1.9,2.1,4.3,2,6.9c-0.1,2.2-0.8,4.2-2,5.9C83.1,19.6,80.2,21.1,77.1,21.1"/>
	<path class="st0" d="M122.3,21.1h-21.9c-5.3,0-9.8-4.5-9.9-10.3c0-0.1,0-0.2,0-0.3c0-0.1,0-0.2,0-0.3c0.1-5.7,4.6-10.3,9.9-10.3
		h21.9c3.1,0,6,1.5,7.9,4.2c1.4,1.9,2.1,4.3,2,6.9c-0.1,2.2-0.8,4.2-2,5.9C128.3,19.6,125.4,21.1,122.3,21.1"/>
	<path class="st1" d="M17.1,6.5c3.2-0.5,3.8-1.9,3.8-1.9h2.3v11.9h-3.4V7.5c-0.7,0.3-1.5,0.6-2.6,0.6V6.5z"/>
	<path class="st0" d="M138.4,19.7c0,0.8-0.6,1.4-1.4,1.4c-0.8,0-1.4-0.6-1.4-1.4c0-0.8,0.6-1.4,1.4-1.4
		C137.7,18.3,138.4,18.9,138.4,19.7"/>
	<path class="st0" d="M154.1,11.8c0,0.4-0.1,0.7-0.4,0.9c-0.3,0.3-0.7,0.4-1.1,0.4c-0.3,0-0.6-0.1-0.8-0.2c-0.2-0.1-0.5-0.4-0.8-0.7
		c-0.4-0.4-0.7-0.7-1-0.8c-0.3-0.1-0.7-0.2-1.1-0.2c-0.8,0-1.5,0.3-1.9,0.9c-0.4,0.6-0.6,1.5-0.6,2.8c0,1.1,0.2,2,0.7,2.6
		c0.4,0.6,1.1,0.9,1.9,0.9c0.4,0,0.7-0.1,1-0.2c0.3-0.1,0.5-0.3,0.8-0.6c0.1-0.1,0.2-0.2,0.4-0.4c0.5-0.7,1-1,1.6-1
		c0.4,0,0.8,0.1,1.1,0.4c0.3,0.3,0.4,0.6,0.4,1c0,0.4-0.1,0.7-0.3,1.1c-0.2,0.4-0.5,0.7-0.9,1c-0.6,0.5-1.2,0.8-1.9,1
		c-0.7,0.2-1.4,0.3-2.2,0.3c-1.9,0-3.3-0.6-4.4-1.7c-1.1-1.1-1.6-2.7-1.6-4.7c0-2,0.5-3.5,1.6-4.6c1.1-1.1,2.6-1.7,4.5-1.7
		c1.4,0,2.7,0.3,3.7,1C153.6,10.1,154.1,10.9,154.1,11.8"/>
	<path class="st0" d="M162.7,10.9c-0.9,0-1.6,0.3-2.1,1c-0.5,0.6-0.7,1.5-0.7,2.7c0,1.2,0.2,2.1,0.7,2.7c0.5,0.6,1.2,1,2.1,1
		c0.9,0,1.6-0.3,2-1c0.5-0.6,0.7-1.5,0.7-2.7c0-1.2-0.2-2.1-0.7-2.7C164.3,11.3,163.6,10.9,162.7,10.9 M162.7,8.3
		c1.9,0,3.3,0.6,4.4,1.7c1.1,1.1,1.6,2.7,1.6,4.6c0,2-0.5,3.5-1.6,4.7c-1.1,1.1-2.5,1.7-4.4,1.7c-1.9,0-3.3-0.6-4.4-1.7
		c-1.1-1.1-1.6-2.7-1.6-4.7c0-2,0.5-3.5,1.6-4.6C159.4,8.8,160.9,8.3,162.7,8.3"/>
	<path class="st0" d="M181.3,10.1c0.4-0.6,0.9-1,1.5-1.3c0.6-0.3,1.3-0.4,2-0.4c1.2,0,2.2,0.4,3,1.1c0.7,0.7,1.1,1.7,1.1,2.9v7
		c0,0.6-0.1,1.1-0.4,1.3c-0.3,0.3-0.7,0.4-1.2,0.4c-0.5,0-0.9-0.2-1.2-0.5c-0.3-0.3-0.4-0.7-0.4-1.3V13c0-0.6-0.2-1-0.5-1.4
		c-0.3-0.3-0.8-0.5-1.3-0.5c-0.6,0-1.2,0.2-1.5,0.6c-0.4,0.4-0.6,1-0.6,1.7v5.8c0,0.6-0.1,1-0.4,1.3c-0.3,0.3-0.7,0.5-1.2,0.5
		c-0.5,0-0.9-0.1-1.2-0.4c-0.3-0.3-0.4-0.7-0.4-1.3V13c0-0.6-0.2-1-0.5-1.4c-0.3-0.3-0.8-0.5-1.3-0.5c-0.6,0-1.2,0.2-1.5,0.6
		c-0.4,0.4-0.6,1-0.6,1.7v5.8c0,0.6-0.1,1-0.4,1.3c-0.3,0.3-0.7,0.5-1.2,0.5c-0.5,0-0.9-0.2-1.2-0.5c-0.3-0.3-0.4-0.7-0.4-1.3v-8.9
		c0-0.6,0.1-1,0.4-1.4c0.3-0.3,0.7-0.5,1.2-0.5c0.5,0,0.8,0.1,1.1,0.4c0.3,0.3,0.4,0.6,0.5,1.2c0.4-0.6,0.9-1,1.5-1.3
		c0.6-0.3,1.2-0.4,1.9-0.4c0.8,0,1.4,0.1,2,0.4C180.4,9.1,180.9,9.5,181.3,10.1"/>
	<path class="st1" d="M62.2,16.1c0.3,0.1,3.2,1.1,5.7-0.6c2.6-1.7,3.2-5,2.5-7.3c-0.2-0.6-0.7-2.4-2.5-3.2c-1.7-0.9-4.1-0.5-5.5,0.9
		c-0.3,0.3-1.1,1.3-1.1,2.7c0,1.9,1.6,3.9,3.5,3.9c1.2,0,2.1-0.7,2.5-1c0,0.2,0.1,1.9-1.3,2.9c-1,0.8-2.5,0.9-3.7,0.4L62.2,16.1z
		 M67.5,8.4c0,1.3-0.8,2.4-1.7,2.4c-0.9,0-1.7-1.1-1.7-2.4c0-1.3,0.8-2.4,1.7-2.4C66.7,6,67.5,7.1,67.5,8.4"/>
	<path class="st1" d="M109.2,7.7c0-0.2,0.1-0.6,0.5-1c0.5-0.5,1.3-0.5,1.9-0.2c0.8,0.5,0.8,1.4,0.8,1.6c0,0.9-0.5,1.5-0.9,1.8
		c-1.9,2.1-3.6,3.9-4.5,4.8v1.8h8.6v-2.7h-4.8c1.2-1.2,1.2-1.2,3.6-3.6c0.7-1,1.4-2.2,0.8-3.7c-1-2.5-5.6-2.4-7.1-1
		c-1,1-1.1,2.2-1.1,2.2L109.2,7.7z"/>
</g>
<line class="st3" x1="51.9" y1="26" x2="51.9" y2="34.8"/>
<line class="st3" x1="137" y1="26.1" x2="137" y2="34.9"/>
<g>
	<path class="st0" d="M6.6,31.1H5v2.4c0,0.3-0.1,0.6-0.2,0.8s-0.4,0.3-0.6,0.3c-0.3,0-0.5-0.1-0.6-0.3s-0.2-0.4-0.2-0.8v-6.6
		c0-0.4,0.1-0.7,0.3-0.8s0.5-0.2,0.8-0.2h2.2c0.7,0,1.2,0.1,1.5,0.2c0.4,0.1,0.7,0.3,0.9,0.5s0.5,0.5,0.6,0.8s0.2,0.7,0.2,1.1
		c0,0.9-0.3,1.5-0.8,2S7.7,31.1,6.6,31.1z M6.2,27.1H5v2.6h1.2c0.4,0,0.8,0,1-0.1s0.5-0.2,0.6-0.4C8,29,8.1,28.8,8.1,28.4
		c0-0.4-0.1-0.7-0.3-0.9C7.5,27.3,7,27.1,6.2,27.1z"/>
	<path class="st0" d="M16.1,31.7H13c0,0.4,0.1,0.7,0.2,1s0.3,0.5,0.6,0.6s0.5,0.2,0.8,0.2c0.2,0,0.4,0,0.5-0.1s0.3-0.1,0.5-0.2
		s0.3-0.2,0.4-0.3c0.1-0.1,0.3-0.3,0.5-0.4c0.1-0.1,0.2-0.1,0.4-0.1c0.2,0,0.3,0,0.4,0.1s0.2,0.2,0.2,0.4c0,0.1-0.1,0.3-0.2,0.5
		s-0.3,0.4-0.5,0.6s-0.5,0.3-0.9,0.4c-0.3,0.1-0.7,0.2-1.2,0.2c-1,0-1.8-0.3-2.4-0.9s-0.9-1.4-0.9-2.4c0-0.5,0.1-0.9,0.2-1.3
		s0.3-0.8,0.6-1s0.6-0.5,1-0.7S14,28,14.5,28c0.6,0,1.2,0.1,1.6,0.4c0.4,0.3,0.8,0.6,1,1s0.3,0.8,0.3,1.3c0,0.4-0.1,0.7-0.3,0.8
		S16.5,31.7,16.1,31.7z M13,30.8h2.9c0-0.5-0.2-1-0.4-1.2s-0.6-0.4-1-0.4c-0.4,0-0.7,0.1-1,0.4S13,30.3,13,30.8z"/>
	<path class="st0" d="M25.6,31.3c0,0.5-0.1,0.9-0.2,1.3s-0.4,0.7-0.6,1s-0.6,0.5-1,0.7s-0.8,0.2-1.3,0.2c-0.5,0-0.9-0.1-1.3-0.2
		s-0.7-0.4-1-0.7s-0.5-0.6-0.6-1s-0.2-0.8-0.2-1.3c0-0.5,0.1-0.9,0.2-1.3s0.4-0.7,0.6-1s0.6-0.5,1-0.7s0.8-0.2,1.3-0.2
		c0.5,0,0.9,0.1,1.3,0.2s0.7,0.4,1,0.7s0.5,0.6,0.6,1S25.6,30.8,25.6,31.3z M24,31.3c0-0.7-0.1-1.2-0.4-1.5s-0.7-0.5-1.2-0.5
		c-0.3,0-0.6,0.1-0.8,0.2s-0.4,0.4-0.6,0.7s-0.2,0.7-0.2,1.1c0,0.4,0.1,0.8,0.2,1.1s0.3,0.6,0.5,0.7s0.5,0.2,0.8,0.2
		c0.5,0,0.9-0.2,1.2-0.5S24,31.9,24,31.3z"/>
	<path class="st0" d="M29.3,28.9v0.2c0.3-0.4,0.6-0.6,0.9-0.8s0.7-0.3,1.1-0.3c0.5,0,0.9,0.1,1.4,0.4s0.7,0.6,1,1.1s0.4,1.1,0.4,1.7
		c0,0.5-0.1,0.9-0.2,1.4s-0.3,0.8-0.6,1s-0.5,0.5-0.9,0.6s-0.7,0.2-1.1,0.2c-0.5,0-0.8-0.1-1.2-0.3s-0.6-0.5-0.9-0.8v2.4
		c0,0.7-0.3,1.1-0.8,1.1c-0.3,0-0.5-0.1-0.6-0.3s-0.1-0.4-0.1-0.8V29c0-0.3,0.1-0.5,0.2-0.7s0.3-0.2,0.5-0.2c0.2,0,0.4,0.1,0.6,0.2
		S29.3,28.7,29.3,28.9z M32.4,31.3c0-0.4-0.1-0.8-0.2-1.1s-0.3-0.5-0.5-0.7s-0.5-0.2-0.8-0.2c-0.4,0-0.8,0.2-1.1,0.5
		s-0.5,0.9-0.5,1.5c0,0.6,0.2,1.1,0.5,1.5s0.7,0.5,1.1,0.5c0.3,0,0.5-0.1,0.7-0.2s0.4-0.4,0.5-0.7S32.4,31.7,32.4,31.3z"/>
	<path class="st0" d="M36.2,33.6v-6.9c0-0.3,0.1-0.6,0.2-0.7s0.3-0.2,0.6-0.2s0.4,0.1,0.6,0.2s0.2,0.4,0.2,0.7v6.9
		c0,0.3-0.1,0.6-0.2,0.7s-0.3,0.2-0.6,0.2c-0.2,0-0.4-0.1-0.6-0.3S36.2,33.9,36.2,33.6z"/>
	<path class="st0" d="M44.8,31.7h-3.1c0,0.4,0.1,0.7,0.2,1s0.3,0.5,0.6,0.6s0.5,0.2,0.8,0.2c0.2,0,0.4,0,0.5-0.1s0.3-0.1,0.5-0.2
		s0.3-0.2,0.4-0.3s0.3-0.3,0.5-0.4c0.1-0.1,0.2-0.1,0.4-0.1c0.2,0,0.3,0,0.4,0.1s0.2,0.2,0.2,0.4c0,0.1-0.1,0.3-0.2,0.5
		s-0.3,0.4-0.5,0.6s-0.5,0.3-0.9,0.4s-0.7,0.2-1.2,0.2c-1,0-1.8-0.3-2.4-0.9s-0.9-1.4-0.9-2.4c0-0.5,0.1-0.9,0.2-1.3s0.3-0.8,0.6-1
		s0.6-0.5,1-0.7s0.8-0.2,1.3-0.2c0.6,0,1.2,0.1,1.6,0.4s0.8,0.6,1,1s0.3,0.8,0.3,1.3c0,0.4-0.1,0.7-0.3,0.8S45.2,31.7,44.8,31.7z
		 M41.7,30.8h2.9c0-0.5-0.2-1-0.4-1.2s-0.6-0.4-1-0.4c-0.4,0-0.7,0.1-1,0.4S41.7,30.3,41.7,30.8z"/>
</g>
<g>
	<path class="st0" d="M61.5,34.4h-2.6c-0.4,0-0.6-0.1-0.8-0.3s-0.2-0.4-0.2-0.8v-6.5c0-0.4,0.1-0.7,0.2-0.8s0.4-0.2,0.8-0.2h2.8
		c0.4,0,0.8,0,1.1,0.1s0.6,0.1,0.8,0.3c0.2,0.1,0.4,0.3,0.5,0.5c0.2,0.2,0.3,0.4,0.4,0.6s0.1,0.5,0.1,0.7c0,0.9-0.4,1.5-1.3,1.9
		c1.1,0.4,1.7,1.1,1.7,2.1c0,0.5-0.1,0.9-0.4,1.3s-0.6,0.7-1,0.9c-0.3,0.1-0.6,0.2-0.9,0.2S62,34.4,61.5,34.4z M59.6,27.1v2.2h1.6
		c0.4,0,0.8,0,1-0.1s0.4-0.2,0.5-0.5c0.1-0.2,0.1-0.3,0.1-0.6c0-0.4-0.2-0.7-0.5-0.9s-0.8-0.2-1.4-0.2H59.6z M61.4,30.6h-1.8v2.5
		h1.9c1.2,0,1.8-0.4,1.8-1.3c0-0.4-0.2-0.7-0.5-0.9S62,30.6,61.4,30.6z"/>
	<path class="st0" d="M71.4,33.6v-0.2c-0.2,0.2-0.4,0.4-0.6,0.6s-0.4,0.3-0.7,0.4s-0.5,0.1-0.9,0.1c-0.4,0-0.7-0.1-1-0.2
		s-0.5-0.4-0.7-0.7c-0.2-0.3-0.3-0.8-0.3-1.5V29c0-0.3,0.1-0.6,0.2-0.7S67.8,28,68,28c0.2,0,0.4,0.1,0.6,0.2s0.2,0.4,0.2,0.7v2.6
		c0,0.4,0,0.7,0.1,0.9s0.2,0.4,0.3,0.6s0.4,0.2,0.7,0.2c0.3,0,0.5-0.1,0.8-0.2s0.4-0.4,0.5-0.6c0.1-0.2,0.1-0.7,0.1-1.5V29
		c0-0.3,0.1-0.6,0.2-0.7s0.3-0.2,0.6-0.2s0.4,0.1,0.6,0.2s0.2,0.4,0.2,0.7v4.6c0,0.3-0.1,0.5-0.2,0.7s-0.3,0.2-0.5,0.2
		s-0.4-0.1-0.5-0.2S71.4,33.9,71.4,33.6z"/>
	<path class="st0" d="M80.5,32.5c0,0.4-0.1,0.8-0.3,1.1s-0.5,0.6-1,0.7s-0.9,0.2-1.5,0.2c-0.6,0-1.1-0.1-1.5-0.3s-0.7-0.4-0.9-0.7
		s-0.3-0.5-0.3-0.8c0-0.2,0.1-0.3,0.2-0.5s0.3-0.2,0.5-0.2c0.2,0,0.3,0,0.4,0.1s0.2,0.2,0.3,0.3c0.2,0.3,0.4,0.5,0.6,0.6
		s0.5,0.2,0.9,0.2c0.3,0,0.6-0.1,0.8-0.2S79,33,79,32.8c0-0.3-0.1-0.5-0.3-0.6s-0.6-0.3-1.1-0.4c-0.6-0.1-1-0.3-1.3-0.4
		s-0.6-0.3-0.8-0.6s-0.3-0.5-0.3-0.9c0-0.3,0.1-0.6,0.3-0.9s0.5-0.5,0.8-0.7s0.8-0.3,1.4-0.3c0.4,0,0.8,0,1.1,0.1s0.6,0.2,0.8,0.3
		s0.4,0.3,0.5,0.5s0.2,0.3,0.2,0.5c0,0.2-0.1,0.3-0.2,0.5s-0.3,0.2-0.5,0.2c-0.2,0-0.3,0-0.4-0.1s-0.2-0.2-0.4-0.4
		c-0.1-0.2-0.3-0.3-0.4-0.4s-0.4-0.1-0.7-0.1c-0.3,0-0.5,0.1-0.7,0.2s-0.3,0.3-0.3,0.5c0,0.2,0.1,0.3,0.2,0.4s0.3,0.2,0.6,0.3
		s0.6,0.2,1,0.3c0.5,0.1,0.9,0.3,1.2,0.4s0.6,0.4,0.7,0.6S80.5,32.2,80.5,32.5z"/>
	<path class="st0" d="M83.6,27.3c-0.2,0-0.4-0.1-0.6-0.2s-0.2-0.3-0.2-0.6c0-0.2,0.1-0.4,0.2-0.6s0.4-0.2,0.6-0.2
		c0.2,0,0.4,0.1,0.6,0.2s0.2,0.3,0.2,0.6c0,0.2-0.1,0.4-0.2,0.6S83.8,27.3,83.6,27.3z M84.4,29v4.6c0,0.3-0.1,0.6-0.2,0.7
		s-0.3,0.2-0.6,0.2s-0.4-0.1-0.6-0.3s-0.2-0.4-0.2-0.7V29c0-0.3,0.1-0.6,0.2-0.7s0.3-0.2,0.6-0.2s0.4,0.1,0.6,0.2S84.4,28.7,84.4,29
		z"/>
	<path class="st0" d="M88.4,28.9v0.2c0.3-0.4,0.6-0.6,0.9-0.8S90,28,90.5,28c0.4,0,0.8,0.1,1.1,0.3s0.6,0.4,0.7,0.8
		c0.1,0.2,0.2,0.4,0.2,0.6s0,0.5,0,0.9v3c0,0.3-0.1,0.6-0.2,0.7s-0.3,0.2-0.6,0.2c-0.2,0-0.4-0.1-0.6-0.3S91,33.9,91,33.6v-2.7
		c0-0.5-0.1-0.9-0.2-1.2s-0.4-0.4-0.9-0.4c-0.3,0-0.5,0.1-0.8,0.3s-0.4,0.4-0.5,0.7c-0.1,0.2-0.1,0.7-0.1,1.3v2
		c0,0.3-0.1,0.6-0.2,0.7s-0.3,0.2-0.6,0.2c-0.2,0-0.4-0.1-0.6-0.3s-0.2-0.4-0.2-0.7V29c0-0.3,0.1-0.5,0.2-0.7s0.3-0.2,0.5-0.2
		c0.1,0,0.3,0,0.4,0.1s0.2,0.2,0.3,0.3S88.4,28.7,88.4,28.9z"/>
	<path class="st0" d="M99.6,31.7h-3.1c0,0.4,0.1,0.7,0.2,1s0.3,0.5,0.6,0.6s0.5,0.2,0.8,0.2c0.2,0,0.4,0,0.5-0.1s0.3-0.1,0.5-0.2
		s0.3-0.2,0.4-0.3s0.3-0.3,0.5-0.4c0.1-0.1,0.2-0.1,0.4-0.1c0.2,0,0.3,0,0.4,0.1s0.2,0.2,0.2,0.4c0,0.1-0.1,0.3-0.2,0.5
		s-0.3,0.4-0.5,0.6s-0.5,0.3-0.9,0.4s-0.7,0.2-1.2,0.2c-1,0-1.8-0.3-2.4-0.9s-0.9-1.4-0.9-2.4c0-0.5,0.1-0.9,0.2-1.3s0.3-0.8,0.6-1
		s0.6-0.5,1-0.7s0.8-0.2,1.3-0.2c0.6,0,1.2,0.1,1.6,0.4s0.8,0.6,1,1s0.3,0.8,0.3,1.3c0,0.4-0.1,0.7-0.3,0.8S100,31.7,99.6,31.7z
		 M96.4,30.8h2.9c0-0.5-0.2-1-0.4-1.2s-0.6-0.4-1-0.4c-0.4,0-0.7,0.1-1,0.4S96.5,30.2,96.4,30.8z"/>
	<path class="st0" d="M108.3,32.5c0,0.4-0.1,0.8-0.3,1.1s-0.5,0.6-1,0.7s-0.9,0.2-1.5,0.2c-0.6,0-1.1-0.1-1.5-0.3s-0.7-0.4-0.9-0.7
		s-0.3-0.5-0.3-0.8c0-0.2,0.1-0.3,0.2-0.5s0.3-0.2,0.5-0.2c0.2,0,0.3,0,0.4,0.1s0.2,0.2,0.3,0.3c0.2,0.3,0.4,0.5,0.6,0.6
		s0.5,0.2,0.9,0.2c0.3,0,0.6-0.1,0.8-0.2s0.3-0.3,0.3-0.5c0-0.3-0.1-0.5-0.3-0.6s-0.6-0.3-1.1-0.4c-0.6-0.1-1-0.3-1.3-0.4
		s-0.6-0.3-0.8-0.6s-0.3-0.5-0.3-0.9c0-0.3,0.1-0.6,0.3-0.9s0.5-0.5,0.8-0.7s0.8-0.3,1.4-0.3c0.4,0,0.8,0,1.1,0.1s0.6,0.2,0.8,0.3
		s0.4,0.3,0.5,0.5s0.2,0.3,0.2,0.5c0,0.2-0.1,0.3-0.2,0.5s-0.3,0.2-0.5,0.2c-0.2,0-0.3,0-0.4-0.1s-0.2-0.2-0.4-0.4
		c-0.1-0.2-0.3-0.3-0.4-0.4s-0.4-0.1-0.7-0.1c-0.3,0-0.5,0.1-0.7,0.2s-0.3,0.3-0.3,0.5c0,0.2,0.1,0.3,0.2,0.4s0.3,0.2,0.6,0.3
		s0.6,0.2,1,0.3c0.5,0.1,0.9,0.3,1.2,0.4s0.6,0.4,0.7,0.6S108.3,32.2,108.3,32.5z"/>
	<path class="st0" d="M115.7,32.5c0,0.4-0.1,0.8-0.3,1.1s-0.5,0.6-1,0.7s-0.9,0.2-1.5,0.2c-0.6,0-1.1-0.1-1.5-0.3s-0.7-0.4-0.9-0.7
		s-0.3-0.5-0.3-0.8c0-0.2,0.1-0.3,0.2-0.5s0.3-0.2,0.5-0.2c0.2,0,0.3,0,0.4,0.1s0.2,0.2,0.3,0.3c0.2,0.3,0.4,0.5,0.6,0.6
		s0.5,0.2,0.9,0.2c0.3,0,0.6-0.1,0.8-0.2s0.3-0.3,0.3-0.5c0-0.3-0.1-0.5-0.3-0.6s-0.6-0.3-1.1-0.4c-0.6-0.1-1-0.3-1.3-0.4
		s-0.6-0.3-0.8-0.6s-0.3-0.5-0.3-0.9c0-0.3,0.1-0.6,0.3-0.9s0.5-0.5,0.8-0.7s0.8-0.3,1.4-0.3c0.4,0,0.8,0,1.1,0.1s0.6,0.2,0.8,0.3
		s0.4,0.3,0.5,0.5s0.2,0.3,0.2,0.5c0,0.2-0.1,0.3-0.2,0.5s-0.3,0.2-0.5,0.2c-0.2,0-0.3,0-0.4-0.1s-0.2-0.2-0.4-0.4
		c-0.1-0.2-0.3-0.3-0.4-0.4s-0.4-0.1-0.7-0.1c-0.3,0-0.5,0.1-0.7,0.2s-0.3,0.3-0.3,0.5c0,0.2,0.1,0.3,0.2,0.4s0.3,0.2,0.6,0.3
		s0.6,0.2,1,0.3c0.5,0.1,0.9,0.3,1.2,0.4s0.6,0.4,0.7,0.6S115.7,32.2,115.7,32.5z"/>
	<path class="st0" d="M122.4,31.7h-3.1c0,0.4,0.1,0.7,0.2,1s0.3,0.5,0.6,0.6s0.5,0.2,0.8,0.2c0.2,0,0.4,0,0.5-0.1s0.3-0.1,0.5-0.2
		s0.3-0.2,0.4-0.3s0.3-0.3,0.5-0.4c0.1-0.1,0.2-0.1,0.4-0.1c0.2,0,0.3,0,0.4,0.1s0.2,0.2,0.2,0.4c0,0.1-0.1,0.3-0.2,0.5
		s-0.3,0.4-0.5,0.6s-0.5,0.3-0.9,0.4s-0.7,0.2-1.2,0.2c-1,0-1.8-0.3-2.4-0.9s-0.9-1.4-0.9-2.4c0-0.5,0.1-0.9,0.2-1.3s0.3-0.8,0.6-1
		s0.6-0.5,1-0.7s0.8-0.2,1.3-0.2c0.6,0,1.2,0.1,1.6,0.4s0.8,0.6,1,1s0.3,0.8,0.3,1.3c0,0.4-0.1,0.7-0.3,0.8S122.8,31.7,122.4,31.7z
		 M119.3,30.8h2.9c0-0.5-0.2-1-0.4-1.2s-0.6-0.4-1-0.4c-0.4,0-0.7,0.1-1,0.4S119.3,30.2,119.3,30.8z"/>
	<path class="st0" d="M131.1,32.5c0,0.4-0.1,0.8-0.3,1.1s-0.5,0.6-1,0.7s-0.9,0.2-1.5,0.2c-0.6,0-1.1-0.1-1.5-0.3s-0.7-0.4-0.9-0.7
		s-0.3-0.5-0.3-0.8c0-0.2,0.1-0.3,0.2-0.5s0.3-0.2,0.5-0.2c0.2,0,0.3,0,0.4,0.1s0.2,0.2,0.3,0.3c0.2,0.3,0.4,0.5,0.6,0.6
		s0.5,0.2,0.9,0.2c0.3,0,0.6-0.1,0.8-0.2s0.3-0.3,0.3-0.5c0-0.3-0.1-0.5-0.3-0.6s-0.6-0.3-1.1-0.4c-0.6-0.1-1-0.3-1.3-0.4
		s-0.6-0.3-0.8-0.6s-0.3-0.5-0.3-0.9c0-0.3,0.1-0.6,0.3-0.9s0.5-0.5,0.8-0.7s0.8-0.3,1.4-0.3c0.4,0,0.8,0,1.1,0.1s0.6,0.2,0.8,0.3
		s0.4,0.3,0.5,0.5s0.2,0.3,0.2,0.5c0,0.2-0.1,0.3-0.2,0.5s-0.3,0.2-0.5,0.2c-0.2,0-0.3,0-0.4-0.1s-0.2-0.2-0.4-0.4
		c-0.1-0.2-0.3-0.3-0.4-0.4s-0.4-0.1-0.7-0.1c-0.3,0-0.5,0.1-0.7,0.2s-0.3,0.3-0.3,0.5c0,0.2,0.1,0.3,0.2,0.4s0.3,0.2,0.6,0.3
		s0.6,0.2,1,0.3c0.5,0.1,0.9,0.3,1.2,0.4s0.6,0.4,0.7,0.6S131.1,32.2,131.1,32.5z"/>
</g>
<g>
	<path class="st0" d="M146.2,31.1h-1.6v2.4c0,0.3-0.1,0.6-0.2,0.8s-0.4,0.3-0.6,0.3c-0.3,0-0.5-0.1-0.6-0.3s-0.2-0.4-0.2-0.8v-6.6
		c0-0.4,0.1-0.7,0.3-0.8s0.5-0.2,0.8-0.2h2.2c0.7,0,1.2,0.1,1.5,0.2c0.4,0.1,0.7,0.3,0.9,0.5s0.5,0.5,0.6,0.8s0.2,0.7,0.2,1.1
		c0,0.9-0.3,1.5-0.8,2S147.3,31.1,146.2,31.1z M145.8,27.1h-1.2v2.6h1.2c0.4,0,0.8,0,1-0.1s0.5-0.2,0.6-0.4s0.2-0.5,0.2-0.8
		c0-0.4-0.1-0.7-0.3-0.9C147.1,27.2,146.6,27.1,145.8,27.1z"/>
	<path class="st0" d="M151.7,33.6v-6.9c0-0.3,0.1-0.6,0.2-0.7s0.3-0.2,0.6-0.2s0.4,0.1,0.6,0.2s0.2,0.4,0.2,0.7v6.9
		c0,0.3-0.1,0.6-0.2,0.7s-0.3,0.2-0.6,0.2c-0.2,0-0.4-0.1-0.6-0.3S151.7,33.9,151.7,33.6z"/>
	<path class="st0" d="M159.9,33.6c-0.4,0.3-0.8,0.5-1.1,0.7s-0.8,0.2-1.2,0.2c-0.4,0-0.8-0.1-1.1-0.2s-0.5-0.4-0.7-0.7
		s-0.3-0.6-0.3-0.9c0-0.4,0.1-0.8,0.4-1.1s0.7-0.5,1.1-0.6c0.1,0,0.4-0.1,0.8-0.2s0.7-0.2,1-0.2s0.6-0.2,0.9-0.2
		c0-0.4-0.1-0.7-0.3-0.9s-0.5-0.3-0.9-0.3c-0.4,0-0.7,0.1-0.9,0.2s-0.4,0.3-0.5,0.5s-0.3,0.4-0.3,0.4s-0.2,0.1-0.4,0.1
		c-0.2,0-0.3-0.1-0.5-0.2s-0.2-0.3-0.2-0.4c0-0.3,0.1-0.6,0.3-0.8s0.5-0.5,0.9-0.7s0.9-0.3,1.6-0.3c0.7,0,1.3,0.1,1.7,0.2
		s0.7,0.4,0.9,0.8s0.2,0.8,0.2,1.4c0,0.4,0,0.7,0,1s0,0.6,0,0.9c0,0.3,0,0.6,0.1,0.9s0.1,0.5,0.1,0.6c0,0.2-0.1,0.3-0.2,0.4
		s-0.3,0.2-0.5,0.2c-0.2,0-0.3-0.1-0.5-0.2S160,33.9,159.9,33.6z M159.8,31.3c-0.2,0.1-0.6,0.2-1,0.3s-0.8,0.2-0.9,0.2
		s-0.3,0.1-0.5,0.3s-0.2,0.3-0.2,0.5c0,0.2,0.1,0.4,0.3,0.6s0.4,0.3,0.7,0.3c0.3,0,0.6-0.1,0.9-0.2s0.5-0.3,0.6-0.5
		c0.1-0.2,0.2-0.6,0.2-1.2V31.3z"/>
	<path class="st0" d="M169.6,32.6c0,0.2-0.1,0.4-0.2,0.6s-0.3,0.4-0.5,0.6s-0.6,0.4-0.9,0.5s-0.8,0.2-1.3,0.2c-1,0-1.8-0.3-2.3-0.9
		s-0.8-1.3-0.8-2.3c0-0.7,0.1-1.2,0.4-1.7s0.6-0.9,1.1-1.2s1.1-0.4,1.7-0.4c0.4,0,0.8,0.1,1.1,0.2s0.6,0.3,0.9,0.5s0.4,0.4,0.6,0.6
		s0.2,0.4,0.2,0.6c0,0.2-0.1,0.4-0.2,0.5s-0.3,0.2-0.5,0.2c-0.1,0-0.2,0-0.3-0.1s-0.2-0.2-0.3-0.3c-0.2-0.3-0.4-0.5-0.6-0.7
		s-0.5-0.2-0.8-0.2c-0.5,0-0.9,0.2-1.1,0.6s-0.4,0.9-0.4,1.5c0,0.3,0,0.6,0.1,0.8s0.2,0.5,0.3,0.6s0.3,0.3,0.5,0.4s0.4,0.1,0.7,0.1
		c0.3,0,0.6-0.1,0.8-0.2s0.4-0.4,0.6-0.7c0.1-0.2,0.2-0.3,0.3-0.4s0.3-0.2,0.4-0.2c0.2,0,0.4,0.1,0.5,0.2S169.6,32.4,169.6,32.6z"/>
	<path class="st0" d="M176.3,31.7h-3.1c0,0.4,0.1,0.7,0.2,1s0.3,0.5,0.6,0.6s0.5,0.2,0.8,0.2c0.2,0,0.4,0,0.5-0.1s0.3-0.1,0.5-0.2
		s0.3-0.2,0.4-0.3s0.3-0.3,0.5-0.4c0.1-0.1,0.2-0.1,0.4-0.1c0.2,0,0.3,0,0.4,0.1s0.2,0.2,0.2,0.4c0,0.1-0.1,0.3-0.2,0.5
		s-0.3,0.4-0.5,0.6s-0.5,0.3-0.9,0.4s-0.7,0.2-1.2,0.2c-1,0-1.8-0.3-2.4-0.9s-0.9-1.4-0.9-2.4c0-0.5,0.1-0.9,0.2-1.3s0.3-0.8,0.6-1
		s0.6-0.5,1-0.7s0.8-0.2,1.3-0.2c0.6,0,1.2,0.1,1.6,0.4s0.8,0.6,1,1s0.3,0.8,0.3,1.3c0,0.4-0.1,0.7-0.3,0.8S176.8,31.7,176.3,31.7z
		 M173.2,30.8h2.9c0-0.5-0.2-1-0.4-1.2s-0.6-0.4-1-0.4c-0.4,0-0.7,0.1-1,0.4S173.3,30.2,173.2,30.8z"/>
	<path class="st0" d="M185.1,32.5c0,0.4-0.1,0.8-0.3,1.1s-0.5,0.6-1,0.7s-0.9,0.2-1.5,0.2c-0.6,0-1.1-0.1-1.5-0.3s-0.7-0.4-0.9-0.7
		s-0.3-0.5-0.3-0.8c0-0.2,0.1-0.3,0.2-0.5s0.3-0.2,0.5-0.2c0.2,0,0.3,0,0.4,0.1s0.2,0.2,0.3,0.3c0.2,0.3,0.4,0.5,0.6,0.6
		s0.5,0.2,0.9,0.2c0.3,0,0.6-0.1,0.8-0.2s0.3-0.3,0.3-0.5c0-0.3-0.1-0.5-0.3-0.6s-0.6-0.3-1.1-0.4c-0.6-0.1-1-0.3-1.3-0.4
		s-0.6-0.3-0.8-0.6s-0.3-0.5-0.3-0.9c0-0.3,0.1-0.6,0.3-0.9s0.5-0.5,0.8-0.7s0.8-0.3,1.4-0.3c0.4,0,0.8,0,1.1,0.1s0.6,0.2,0.8,0.3
		s0.4,0.3,0.5,0.5s0.2,0.3,0.2,0.5c0,0.2-0.1,0.3-0.2,0.5s-0.3,0.2-0.5,0.2c-0.2,0-0.3,0-0.4-0.1s-0.2-0.2-0.4-0.4
		c-0.1-0.2-0.3-0.3-0.4-0.4s-0.4-0.1-0.7-0.1c-0.3,0-0.5,0.1-0.7,0.2s-0.3,0.3-0.3,0.5c0,0.2,0.1,0.3,0.2,0.4s0.3,0.2,0.6,0.3
		s0.6,0.2,1,0.3c0.5,0.1,0.9,0.3,1.2,0.4s0.6,0.4,0.7,0.6S185.1,32.2,185.1,32.5z"/>
</g>
</svg>
